<?xml version="1.0" encoding="UTF-8"?>
<svg xmlns="http://www.w3.org/2000/svg" xmlns:xlink="http://www.w3.org/1999/xlink" width="320px" height="320px" viewBox="0 0 320 320" version="1.1">
<defs>
<linearGradient id="linear0" gradientUnits="userSpaceOnUse" x1="0" y1="0" x2="1" y2="0" gradientTransform="matrix(266.667969,0,0,10.632813,32,288.035156)">
<stop offset="0" style="stop-color:rgb(0%,100%,56.078434%);stop-opacity:1;"/>
<stop offset="1" style="stop-color:rgb(0%,63.137257%,100%);stop-opacity:1;"/>
</linearGradient>
<linearGradient id="linear1" gradientUnits="userSpaceOnUse" x1="0" y1="0" x2="1" y2="0" gradientTransform="matrix(277.351562,0,0,320,32,0)">
<stop offset="0" style="stop-color:rgb(0%,100%,56.078434%);stop-opacity:1;"/>
<stop offset="1" style="stop-color:rgb(0%,63.137257%,100%);stop-opacity:1;"/>
</linearGradient>
<linearGradient id="linear2" gradientUnits="userSpaceOnUse" x1="0" y1="0" x2="1" y2="0" gradientTransform="matrix(284.917969,0,0,71.785156,0,98.914062)">
<stop offset="0" style="stop-color:rgb(0%,100%,56.078434%);stop-opacity:1;"/>
<stop offset="1" style="stop-color:rgb(0%,63.137257%,100%);stop-opacity:1;"/>
</linearGradient>
<linearGradient id="linear3" gradientUnits="userSpaceOnUse" x1="0" y1="0" x2="1" y2="0" gradientTransform="matrix(288,0,0,255.96875,32,42.699219)">
<stop offset="0" style="stop-color:rgb(0%,100%,56.078434%);stop-opacity:1;"/>
<stop offset="1" style="stop-color:rgb(0%,63.137257%,100%);stop-opacity:1;"/>
</linearGradient>
<linearGradient id="linear4" gradientUnits="userSpaceOnUse" x1="0" y1="0" x2="1" y2="0" gradientTransform="matrix(53.351562,0,0,170.660156,117.316406,128.007812)">
<stop offset="0" style="stop-color:rgb(0%,100%,56.078434%);stop-opacity:1;"/>
<stop offset="1" style="stop-color:rgb(0%,63.137257%,100%);stop-opacity:1;"/>
</linearGradient>
</defs>
<g id="surface1">
<rect x="0" y="0" width="320" height="320" style="fill:rgb(100%,100%,100%);fill-opacity:1;stroke:none;"/>
<path style=" stroke:none;fill-rule:nonzero;fill:url(#linear0);" d="M 293.351562 298.667969 L 37.351562 298.667969 C 34.402344 298.667969 32 296.296875 32 293.351562 C 32 290.402344 34.371094 288.035156 37.351562 288.035156 L 293.351562 288.035156 C 296.296875 288.035156 298.667969 290.4375 298.667969 293.351562 C 298.667969 296.296875 296.296875 298.667969 293.351562 298.667969 Z M 293.351562 298.667969 "/>
<path style=" stroke:none;fill-rule:nonzero;fill:url(#linear1);" d="M 293.351562 298.667969 L 37.351562 298.667969 C 34.402344 298.667969 32 296.296875 32 293.351562 C 32 290.402344 34.371094 288.035156 37.351562 288.035156 L 293.351562 288.035156 C 296.296875 288.035156 298.667969 290.4375 298.667969 293.351562 C 298.667969 296.296875 296.296875 298.667969 293.351562 298.667969 Z M 293.351562 320 L 37.351562 320 C 34.402344 320 32 317.597656 32 314.683594 C 32 311.738281 34.371094 309.367188 37.351562 309.367188 L 293.351562 309.367188 C 296.296875 309.367188 298.667969 311.738281 298.667969 314.683594 C 298.667969 317.597656 296.296875 320 293.351562 320 Z M 277.300781 10.632812 C 278.214844 10.632812 279.09375 10.699219 280.007812 10.800781 C 285.664062 11.511719 290.742188 14.390625 294.230469 18.894531 C 297.71875 23.433594 299.277344 29.019531 298.566406 34.710938 C 297.246094 45.375 288.101562 53.433594 277.402344 53.433594 C 276.519531 53.433594 275.605469 53.367188 274.691406 53.265625 C 269.035156 52.554688 263.992188 49.675781 260.46875 45.171875 C 256.980469 40.667969 255.425781 35.046875 256.136719 29.394531 C 257.488281 18.691406 266.566406 10.632812 277.300781 10.632812 M 277.300781 0 C 261.417969 0 247.636719 11.816406 245.605469 28.003906 C 243.402344 45.546875 255.832031 61.5625 273.371094 63.761719 C 274.726562 63.933594 276.082031 64 277.402344 64 C 293.28125 64 307.066406 52.183594 309.097656 35.996094 C 311.296875 18.453125 298.871094 2.472656 281.328125 0.238281 C 279.976562 0.101562 278.621094 0 277.300781 0 Z M 63.1875 43.582031 C 90.007812 46.085938 108.222656 53.738281 116.386719 66.167969 C 123.191406 76.527344 121.9375 88.71875 120.210938 96 L 106.667969 96 L 106.667969 74.632812 L 85.332031 74.632812 L 85.332031 53.300781 L 69.6875 53.300781 L 63.1875 43.582031 M 42.667969 32 L 64 64 L 74.667969 64 L 74.667969 85.332031 L 96 85.332031 L 96 106.699219 L 128 106.699219 C 128.035156 106.667969 161.117188 32 42.667969 32 Z M 42.667969 32 "/>
<path style=" stroke:none;fill-rule:nonzero;fill:url(#linear2);" d="M 72.636719 109.578125 C 88.652344 109.578125 98.777344 119.566406 103.820312 126.375 L 90.582031 139.378906 L 82.996094 131.757812 L 75.445312 124.207031 L 67.894531 131.757812 L 60.375 139.308594 L 52.824219 131.757812 L 46.257812 125.15625 L 38.839844 130.777344 L 29.96875 137.480469 L 20.757812 134.570312 C 40.027344 118.179688 57.769531 109.578125 72.636719 109.578125 M 72.636719 98.914062 C 54.621094 98.914062 30.679688 108.628906 0 139.308594 L 32 149.332031 L 45.273438 139.308594 L 60.375 154.378906 L 75.445312 139.308594 L 90.546875 154.378906 L 117.367188 128.035156 C 117.332031 128 103.855469 98.914062 72.636719 98.914062 Z M 168.363281 129.660156 C 182.113281 129.660156 192.507812 139.851562 199.347656 160.035156 L 196.742188 160.035156 L 189.1875 152.484375 L 186.074219 149.332031 L 174.054688 149.332031 L 171.714844 144.59375 L 168.363281 137.855469 L 160.847656 138.769531 L 154.210938 139.582031 L 152.078125 133.484375 C 156.34375 131.554688 162.199219 129.660156 168.363281 129.660156 M 168.363281 118.992188 C 152.484375 118.992188 138.972656 128.472656 138.972656 128.472656 L 146.929688 151.261719 L 162.132812 149.367188 L 167.414062 160.035156 L 181.636719 160.035156 L 192.304688 170.699219 L 213.332031 170.699219 C 203.988281 129.152344 184.890625 118.992188 168.363281 118.992188 Z M 258.269531 117.433594 C 261.890625 117.433594 265.753906 117.738281 269.917969 118.316406 L 269.375 119.566406 L 257.457031 123.96875 L 252.984375 125.597656 L 251.226562 129.964844 L 248.789062 135.957031 L 245.402344 135.921875 L 240.21875 135.855469 L 237.003906 139.917969 L 229.519531 149.300781 L 224.136719 149.300781 C 224.574219 142.628906 226.335938 133.585938 232.058594 127.019531 C 237.613281 120.6875 246.417969 117.433594 258.269531 117.433594 M 258.269531 106.769531 C 206.257812 106.769531 213.738281 160 213.738281 160 L 234.667969 160 L 245.332031 146.589844 L 256 146.660156 L 261.113281 133.960938 L 277.332031 127.964844 L 284.917969 110.460938 C 274.625 107.917969 265.820312 106.769531 258.269531 106.769531 Z M 258.269531 106.769531 "/>
<path style=" stroke:none;fill-rule:nonzero;fill:url(#linear3);" d="M 273.234375 153.566406 C 281.835938 153.566406 291.691406 158.375 302.085938 167.6875 L 297.921875 169.785156 L 290.574219 167.28125 L 285.425781 165.484375 L 280.957031 168.636719 L 276.621094 171.683594 L 269.953125 168.058594 L 264.027344 164.84375 L 258.609375 168.804688 L 253.15625 172.765625 L 248.515625 168.636719 C 253.1875 162.269531 261.722656 153.566406 273.234375 153.566406 M 273.234375 142.898438 C 247.941406 142.898438 234.667969 170.667969 234.667969 170.667969 L 252.445312 186.445312 L 264.871094 177.4375 L 277.332031 184.210938 L 287.121094 177.335938 L 298.667969 181.332031 L 320 170.667969 C 301.546875 149.839844 285.902344 142.898438 273.234375 142.898438 Z M 84.757812 166.433594 C 89.058594 166.433594 92.953125 167.042969 96 167.789062 L 96 181.332031 L 74.667969 181.332031 L 74.667969 202.667969 L 53.332031 202.667969 L 53.332031 218.3125 L 43.546875 224.847656 C 46.359375 194.8125 56.449219 166.433594 84.757812 166.433594 M 84.757812 155.765625 C 62.714844 155.765625 32 169.378906 32 245.367188 L 64 224 L 64 213.332031 L 85.332031 213.332031 L 85.332031 192 L 106.667969 192 L 106.667969 160 C 106.667969 160.035156 97.082031 155.765625 84.757812 155.765625 Z M 235.277344 198.433594 C 263.585938 198.433594 273.675781 226.84375 276.453125 256.8125 L 266.667969 250.3125 L 266.667969 234.667969 L 245.332031 234.667969 L 245.332031 213.300781 L 224 213.300781 L 224 199.753906 C 227.046875 199.042969 230.976562 198.433594 235.277344 198.433594 M 235.277344 187.765625 C 222.949219 187.765625 213.367188 192.035156 213.367188 192.035156 L 213.367188 224 L 234.699219 224 L 234.699219 245.367188 L 256.035156 245.367188 L 256.035156 256.035156 L 288.035156 277.367188 C 288 201.378906 257.285156 187.765625 235.277344 187.765625 Z M 205.851562 54.042969 L 200.535156 64.035156 L 181.332031 64.035156 L 181.332031 85.367188 L 160 85.367188 L 160 106.734375 L 150.28125 106.734375 C 148.082031 99.453125 145.8125 86.789062 152.3125 76.222656 C 160 63.796875 178.320312 56.246094 205.851562 54.042969 M 224 42.699219 C 105.550781 42.699219 142.898438 117.367188 142.898438 117.367188 L 170.667969 117.367188 L 170.667969 96.035156 L 192 96.035156 L 192 74.667969 L 206.933594 74.667969 Z M 164.0625 253.425781 C 168.738281 243.503906 177.742188 227.082031 192.371094 210.117188 C 186.210938 229.148438 181.367188 257.996094 181.367188 298.667969 L 192.035156 298.667969 C 189.832031 226.234375 212.519531 189.933594 212.757812 189.527344 C 214.179688 187.292969 213.738281 184.347656 211.707031 182.621094 C 209.675781 180.925781 206.730469 180.894531 204.730469 182.621094 C 180.589844 203.511719 165.859375 226.605469 157.800781 242.015625 L 160 245.332031 Z M 164.0625 253.425781 "/>
<path style=" stroke:none;fill-rule:nonzero;fill:url(#linear4);" d="M 123.429688 298.667969 L 134.230469 298.667969 C 138.363281 271.339844 142.359375 226.574219 135.855469 175.476562 C 145.40625 202.429688 156.679688 243.539062 160 298.667969 L 170.667969 298.667969 C 164.0625 187.089844 128.644531 132.773438 127.121094 130.402344 C 125.699219 128.238281 122.886719 127.425781 120.515625 128.441406 C 118.144531 129.488281 116.859375 132.097656 117.46875 134.601562 C 134.09375 202.496094 128.675781 265.210938 123.429688 298.667969 Z M 123.429688 298.667969 "/>
</g>
</svg>
